<svg width="100" height="100" viewBox="0 0 151 151" fill="none" xmlns="http://www.w3.org/2000/svg">
<path d="M108.542 49.2501V60.4626C108.542 60.4626 100.001 60.5001 99.9583 60.4626V49.2501H87.0833C87.0833 49.2501 87.1262 41.7876 87.0833 41.7501H99.9583V30.5001H108.542V41.7501H121.417V49.2501H108.542ZM95.6667 64.2501V53.0001H82.7917V41.7501H48.4583C43.7375 41.7501 39.875 45.1251 39.875 49.2501V94.2501C39.875 98.3751 43.7375 101.75 48.4583 101.75H99.9583C104.679 101.75 108.542 98.3751 108.542 94.2501V64.2501H95.6667ZM48.4583 94.2501L61.3333 79.2501L69.9167 90.5001L82.7917 75.5001L99.9583 94.2501H48.4583Z" fill="#D9D9D9"/>
<path d="M19.763 115.559H21.8986L25.8799 126.39H23.7138L22.707 123.69H18.924L17.9325 126.39H15.7664L19.763 115.559ZM22.3257 122.21L20.8308 117.741L19.2748 122.21H22.3257ZM27.0054 122.393C27.0054 121.62 27.1579 120.924 27.463 120.303C27.7681 119.673 28.1902 119.175 28.7291 118.808C29.2681 118.442 29.8834 118.259 30.5749 118.259C31.1647 118.259 31.6935 118.407 32.1613 118.702C32.6393 118.986 33.0105 119.353 33.2749 119.8V115.254H35.319V124.102C35.319 124.315 35.3546 124.468 35.4257 124.559C35.4969 124.651 35.619 124.707 35.7918 124.727V126.39C35.4359 126.461 35.1461 126.497 34.9224 126.497C34.5563 126.497 34.2512 126.405 34.0071 126.222C33.7732 126.039 33.641 125.8 33.6105 125.505L33.58 125.002C33.2851 125.5 32.8834 125.881 32.3749 126.146C31.8766 126.41 31.3529 126.542 30.8037 126.542C30.2546 126.542 29.7461 126.436 29.2783 126.222C28.8207 126.008 28.419 125.714 28.0732 125.337C27.7376 124.961 27.4732 124.524 27.28 124.025C27.0969 123.517 27.0054 122.973 27.0054 122.393ZM33.2749 123.461V121.554C33.1732 121.259 33.0105 120.995 32.7868 120.761C32.563 120.527 32.3139 120.344 32.0393 120.212C31.7647 120.069 31.4902 119.998 31.2156 119.998C30.9003 119.998 30.6156 120.064 30.3613 120.197C30.1071 120.329 29.8834 120.507 29.6902 120.731C29.5071 120.954 29.3647 121.214 29.263 121.508C29.1715 121.803 29.1257 122.114 29.1257 122.439C29.1257 122.764 29.1766 123.075 29.2783 123.369C29.3902 123.654 29.5478 123.903 29.7512 124.117C29.9546 124.331 30.1885 124.498 30.4529 124.62C30.7274 124.742 31.0224 124.803 31.3376 124.803C31.5308 124.803 31.7241 124.773 31.9173 124.712C32.1207 124.641 32.3088 124.549 32.4817 124.437C32.6647 124.315 32.8224 124.173 32.9546 124.01C33.0969 123.837 33.2037 123.654 33.2749 123.461ZM38.1728 126.39V118.397H40.2169V126.39H38.1728ZM38.1728 117.283V115.254H40.2169V117.283H38.1728ZM46.6304 126.542C45.9795 126.542 45.3948 126.436 44.8761 126.222C44.3575 125.998 43.9151 125.693 43.549 125.307C43.1829 124.91 42.8982 124.463 42.6948 123.964C42.5016 123.466 42.4049 122.942 42.4049 122.393C42.4049 121.641 42.5727 120.954 42.9083 120.334C43.2541 119.703 43.7422 119.2 44.3727 118.824C45.0032 118.447 45.7507 118.259 46.6151 118.259C47.4795 118.259 48.2219 118.447 48.8422 118.824C49.4626 119.2 49.9253 119.693 50.2304 120.303L48.2321 120.914C48.0592 120.619 47.8304 120.395 47.5456 120.242C47.2609 120.08 46.9456 119.998 46.5999 119.998C46.2134 119.998 45.8575 120.1 45.5321 120.303C45.2168 120.497 44.9677 120.776 44.7846 121.142C44.6016 121.498 44.51 121.915 44.51 122.393C44.51 122.861 44.6016 123.278 44.7846 123.644C44.9778 124 45.2321 124.285 45.5473 124.498C45.8626 124.702 46.2134 124.803 46.5999 124.803C46.8439 124.803 47.0727 124.763 47.2863 124.681C47.51 124.6 47.7083 124.488 47.8812 124.346C48.0541 124.203 48.1812 124.041 48.2626 123.858L50.2609 124.468C50.0778 124.864 49.8083 125.22 49.4524 125.536C49.1066 125.851 48.6948 126.1 48.2168 126.283C47.749 126.456 47.2202 126.542 46.6304 126.542ZM52.3661 126.39V118.397H54.4102V126.39H52.3661ZM52.3661 117.283V115.254H54.4102V117.283H52.3661ZM60.7931 126.542C60.1423 126.542 59.5575 126.436 59.0389 126.222C58.5202 125.998 58.0779 125.693 57.7118 125.307C57.3558 124.92 57.0813 124.478 56.888 123.98C56.6948 123.481 56.5982 122.958 56.5982 122.408C56.5982 121.849 56.6948 121.32 56.888 120.822C57.0813 120.324 57.3558 119.881 57.7118 119.495C58.0779 119.108 58.5202 118.808 59.0389 118.595C59.5575 118.371 60.1423 118.259 60.7931 118.259C61.444 118.259 62.0236 118.371 62.5321 118.595C63.0507 118.808 63.4931 119.108 63.8592 119.495C64.2253 119.881 64.4999 120.324 64.683 120.822C64.8762 121.32 64.9728 121.849 64.9728 122.408C64.9728 122.958 64.8762 123.481 64.683 123.98C64.4999 124.478 64.2253 124.92 63.8592 125.307C63.5033 125.693 63.066 125.998 62.5474 126.222C62.0287 126.436 61.444 126.542 60.7931 126.542ZM58.7033 122.408C58.7033 122.876 58.7948 123.293 58.9779 123.659C59.1609 124.015 59.4101 124.295 59.7253 124.498C60.0406 124.702 60.3965 124.803 60.7931 124.803C61.1796 124.803 61.5304 124.702 61.8457 124.498C62.1609 124.285 62.4101 124 62.5931 123.644C62.7863 123.278 62.883 122.861 62.883 122.393C62.883 121.936 62.7863 121.524 62.5931 121.158C62.4101 120.792 62.1609 120.507 61.8457 120.303C61.5304 120.1 61.1796 119.998 60.7931 119.998C60.3965 119.998 60.0406 120.105 59.7253 120.319C59.4101 120.522 59.1609 120.807 58.9779 121.173C58.7948 121.529 58.7033 121.941 58.7033 122.408ZM74.6287 126.39H72.5847V121.905C72.5847 121.264 72.4728 120.797 72.2491 120.502C72.0253 120.207 71.7152 120.059 71.3186 120.059C71.044 120.059 70.7643 120.131 70.4796 120.273C70.205 120.415 69.9558 120.614 69.7321 120.868C69.5084 121.112 69.3457 121.397 69.244 121.722V126.39H67.1999V118.397H69.0457V119.876C69.2491 119.531 69.5084 119.241 69.8236 119.007C70.1389 118.763 70.4999 118.58 70.9067 118.458C71.3236 118.325 71.7609 118.259 72.2186 118.259C72.7169 118.259 73.1236 118.351 73.4389 118.534C73.7643 118.707 74.0084 118.946 74.1711 119.251C74.344 119.546 74.4609 119.881 74.5219 120.258C74.5931 120.634 74.6287 121.015 74.6287 121.402V126.39ZM76.7044 124.025C76.7044 123.507 76.8468 123.054 77.1315 122.668C77.4264 122.271 77.8332 121.966 78.3518 121.753C78.8705 121.539 79.4654 121.432 80.1366 121.432C80.4722 121.432 80.8129 121.458 81.1586 121.508C81.5044 121.559 81.8044 121.641 82.0586 121.753V121.325C82.0586 120.817 81.9061 120.425 81.601 120.151C81.3061 119.876 80.8637 119.739 80.2739 119.739C79.8366 119.739 79.4196 119.815 79.023 119.968C78.6264 120.12 78.2095 120.344 77.7722 120.639L77.1163 119.297C77.6451 118.951 78.184 118.692 78.7332 118.519C79.2925 118.346 79.8773 118.259 80.4874 118.259C81.6264 118.259 82.5112 118.544 83.1417 119.114C83.7824 119.683 84.1027 120.497 84.1027 121.554V124.102C84.1027 124.315 84.1383 124.468 84.2095 124.559C84.2908 124.651 84.4179 124.707 84.5908 124.727V126.39C84.4078 126.42 84.24 126.446 84.0874 126.466C83.9451 126.486 83.823 126.497 83.7213 126.497C83.3146 126.497 83.0044 126.405 82.7908 126.222C82.5874 126.039 82.4603 125.815 82.4095 125.551L82.3637 125.139C82.0179 125.586 81.5857 125.932 81.0671 126.176C80.5485 126.42 80.0196 126.542 79.4807 126.542C78.9518 126.542 78.4739 126.436 78.0468 126.222C77.6298 125.998 77.2993 125.698 77.0552 125.322C76.8213 124.936 76.7044 124.503 76.7044 124.025ZM81.6773 124.437C81.7891 124.315 81.8807 124.193 81.9518 124.071C82.023 123.949 82.0586 123.837 82.0586 123.736V122.927C81.8146 122.825 81.5502 122.749 81.2654 122.698C80.9807 122.637 80.7112 122.607 80.4569 122.607C79.9281 122.607 79.4908 122.724 79.1451 122.958C78.8095 123.181 78.6417 123.481 78.6417 123.858C78.6417 124.061 78.6976 124.254 78.8095 124.437C78.9213 124.62 79.084 124.768 79.2976 124.88C79.5112 124.992 79.7654 125.047 80.0603 125.047C80.3654 125.047 80.6654 124.992 80.9603 124.88C81.2552 124.758 81.4942 124.61 81.6773 124.437ZM91.6196 120.166C90.9992 120.166 90.445 120.288 89.9569 120.532C89.4687 120.766 89.1179 121.107 88.9043 121.554V126.39H86.8603V118.397H88.7365V120.105C89.0213 119.556 89.3823 119.124 89.8196 118.808C90.2569 118.493 90.7196 118.32 91.2077 118.29C91.3196 118.29 91.406 118.29 91.467 118.29C91.5281 118.29 91.5789 118.295 91.6196 118.305V120.166ZM98.2644 126.39V120.38H97.2118V118.824H98.2644V118.336C98.2644 117.675 98.3712 117.105 98.5847 116.627C98.8085 116.139 99.1186 115.763 99.5152 115.498C99.922 115.234 100.395 115.102 100.934 115.102C101.259 115.102 101.585 115.142 101.91 115.224C102.246 115.305 102.576 115.422 102.902 115.575L102.49 117.115C102.337 117.034 102.159 116.968 101.956 116.917C101.753 116.856 101.559 116.825 101.376 116.825C101.03 116.825 100.766 116.947 100.583 117.192C100.4 117.436 100.308 117.792 100.308 118.259V118.824H102.261V120.38H100.308V126.39H98.2644ZM107.857 126.542C107.206 126.542 106.621 126.436 106.103 126.222C105.584 125.998 105.142 125.693 104.775 125.307C104.42 124.92 104.145 124.478 103.952 123.98C103.759 123.481 103.662 122.958 103.662 122.408C103.662 121.849 103.759 121.32 103.952 120.822C104.145 120.324 104.42 119.881 104.775 119.495C105.142 119.108 105.584 118.808 106.103 118.595C106.621 118.371 107.206 118.259 107.857 118.259C108.508 118.259 109.087 118.371 109.596 118.595C110.114 118.808 110.557 119.108 110.923 119.495C111.289 119.881 111.564 120.324 111.747 120.822C111.94 121.32 112.036 121.849 112.036 122.408C112.036 122.958 111.94 123.481 111.747 123.98C111.564 124.478 111.289 124.92 110.923 125.307C110.567 125.693 110.13 125.998 109.611 126.222C109.092 126.436 108.508 126.542 107.857 126.542ZM105.767 122.408C105.767 122.876 105.859 123.293 106.042 123.659C106.225 124.015 106.474 124.295 106.789 124.498C107.104 124.702 107.46 124.803 107.857 124.803C108.243 124.803 108.594 124.702 108.909 124.498C109.225 124.285 109.474 124 109.657 123.644C109.85 123.278 109.947 122.861 109.947 122.393C109.947 121.936 109.85 121.524 109.657 121.158C109.474 120.792 109.225 120.507 108.909 120.303C108.594 120.1 108.243 119.998 107.857 119.998C107.46 119.998 107.104 120.105 106.789 120.319C106.474 120.522 106.225 120.807 106.042 121.173C105.859 121.529 105.767 121.941 105.767 122.408ZM118.934 125.978C118.761 126.049 118.553 126.131 118.309 126.222C118.065 126.314 117.8 126.385 117.516 126.436C117.241 126.497 116.961 126.527 116.677 126.527C116.3 126.527 115.955 126.461 115.639 126.329C115.324 126.197 115.07 125.988 114.877 125.703C114.694 125.408 114.602 125.027 114.602 124.559V119.968H113.55V118.397H114.602V115.803H116.646V118.397H118.324V119.968H116.646V123.873C116.656 124.147 116.733 124.346 116.875 124.468C117.017 124.59 117.195 124.651 117.409 124.651C117.622 124.651 117.831 124.615 118.034 124.544C118.238 124.473 118.4 124.412 118.522 124.361L118.934 125.978ZM124.448 126.542C123.798 126.542 123.213 126.436 122.694 126.222C122.176 125.998 121.733 125.693 121.367 125.307C121.011 124.92 120.737 124.478 120.543 123.98C120.35 123.481 120.254 122.958 120.254 122.408C120.254 121.849 120.35 121.32 120.543 120.822C120.737 120.324 121.011 119.881 121.367 119.495C121.733 119.108 122.176 118.808 122.694 118.595C123.213 118.371 123.798 118.259 124.448 118.259C125.099 118.259 125.679 118.371 126.187 118.595C126.706 118.808 127.148 119.108 127.515 119.495C127.881 119.881 128.155 120.324 128.338 120.822C128.531 121.32 128.628 121.849 128.628 122.408C128.628 122.958 128.531 123.481 128.338 123.98C128.155 124.478 127.881 124.92 127.515 125.307C127.159 125.693 126.721 125.998 126.203 126.222C125.684 126.436 125.099 126.542 124.448 126.542ZM122.359 122.408C122.359 122.876 122.45 123.293 122.633 123.659C122.816 124.015 123.065 124.295 123.381 124.498C123.696 124.702 124.052 124.803 124.448 124.803C124.835 124.803 125.186 124.702 125.501 124.498C125.816 124.285 126.065 124 126.248 123.644C126.442 123.278 126.538 122.861 126.538 122.393C126.538 121.936 126.442 121.524 126.248 121.158C126.065 120.792 125.816 120.507 125.501 120.303C125.186 120.1 124.835 119.998 124.448 119.998C124.052 119.998 123.696 120.105 123.381 120.319C123.065 120.522 122.816 120.807 122.633 121.173C122.45 121.529 122.359 121.941 122.359 122.408ZM133.799 126.542C133.118 126.542 132.467 126.431 131.847 126.207C131.226 125.983 130.693 125.653 130.245 125.215L130.977 123.888C131.455 124.275 131.923 124.559 132.381 124.742C132.848 124.925 133.296 125.017 133.723 125.017C134.12 125.017 134.435 124.946 134.669 124.803C134.913 124.661 135.035 124.447 135.035 124.163C135.035 123.969 134.969 123.822 134.837 123.72C134.704 123.608 134.511 123.512 134.257 123.431C134.013 123.349 133.713 123.258 133.357 123.156C132.767 122.963 132.274 122.775 131.877 122.592C131.481 122.408 131.181 122.18 130.977 121.905C130.784 121.62 130.687 121.259 130.687 120.822C130.687 120.293 130.82 119.841 131.084 119.464C131.359 119.078 131.735 118.778 132.213 118.564C132.701 118.351 133.27 118.244 133.921 118.244C134.491 118.244 135.03 118.336 135.538 118.519C136.047 118.692 136.509 118.976 136.926 119.373L136.103 120.669C135.696 120.354 135.309 120.125 134.943 119.983C134.577 119.831 134.206 119.754 133.83 119.754C133.616 119.754 133.413 119.78 133.22 119.831C133.037 119.881 132.884 119.968 132.762 120.09C132.65 120.202 132.594 120.364 132.594 120.578C132.594 120.771 132.645 120.924 132.747 121.036C132.859 121.137 133.021 121.229 133.235 121.31C133.459 121.392 133.728 121.483 134.043 121.585C134.684 121.768 135.223 121.956 135.66 122.149C136.108 122.342 136.443 122.581 136.667 122.866C136.891 123.141 137.003 123.522 137.003 124.01C137.003 124.803 136.713 125.424 136.133 125.871C135.554 126.319 134.776 126.542 133.799 126.542Z" fill="#D9D9D9"/>
<rect x="0.423797" y="0.423797" width="149.176" height="149.176" stroke="#D9D9D9" stroke-width="0.847594" stroke-dasharray="8.48 8.48"/>
</svg>
